# xmcd
#
# Track frame offsets:
#	150
#	10340
#	22627
#	34292
#	45220
#	54585
#	63450
#	73407
#	84947
#	92920
#	102875
#	112882
#	123650
#	133887
#	143517
#	152937
#	164437
#	176272
#	185330
#	197045
#
# Disc length: 2781 seconds
#
# Revision: 7
# Processed by: cddbd v1.5.2PL0 Copyright (c) Steve Scherf et al.
# Submitted via: audiograbber 1.83.01
#
DISCID=0b0adb14
DTITLE=Various Artist - Treasured Tunes - Volume 2
DYEAR=1995
DGENRE=Oldies
TTITLE0=Hilltoppers - Marianne
TTITLE1=Bonnie Guitar - Dark Moon
TTITLE2=George Hamilton IV - Why Don't They Understand
TTITLE3=Nick Todd - At The Hop
TTITLE4=Jimmy Edwards - Love Bug Crawl
TTITLE5=Gino and Gina - (It's Been A Long Time) Pretty Baby
TTITLE6=Billy Graves - The Shag (Is Totally Cool)
TTITLE7=Impalas - Sorry (I Ran All The Way Home)
TTITLE8=Conway Twitty - Hey Little Lucy! (Don'tcha Put No Lipstick On)
TTITLE9=Steve Lawrence - Footsteps
TTITLE10=Damita Jo - I'll Save The Last Dance For You
TTITLE11=Showmen - It Will Stand
TTITLE12=Springfields - Silver Threads And Golden Needles
TTITLE13=Sherrys - Pop Pop Pop Pie
TTITLE14=Majors - Tra La La
TTITLE15=Dixiebelles - (Down At) Papa Joe's
TTITLE16=Tommy Roe - Carol
TTITLE17=Millie Small - My Boy Lollipop
TTITLE18=Crispian St Peters - The Pied Piper
TTITLE19=Sandy Posey - Single Girl
EXTD=
EXTT0=
EXTT1=
EXTT2=
EXTT3=
EXTT4=
EXTT5=
EXTT6=
EXTT7=
EXTT8=
EXTT9=
EXTT10=
EXTT11=
EXTT12=
EXTT13=
EXTT14=
EXTT15=
EXTT16=
EXTT17=
EXTT18=
EXTT19=
PLAYORDER=
